<svg width="20" height="21" viewBox="0 0 20 21" fill="none" xmlns="http://www.w3.org/2000/svg">
<g clip-path="url(#clip0_639_53643)">
<path d="M17.9616 3.78442C17.8858 3.77661 17.8095 3.77661 17.7338 3.78442H2.17823C2.07854 3.78595 1.9795 3.8009 1.88379 3.82886L9.91157 11.8233L17.9616 3.78442Z" fill="#7ABB66"/>
<path d="M18.7834 4.55664L10.6945 12.6122C10.4863 12.8191 10.2047 12.9353 9.91115 12.9353C9.61761 12.9353 9.336 12.8191 9.12782 12.6122L1.11115 4.61775C1.08651 4.70833 1.07344 4.80167 1.07227 4.89553V16.0066C1.07227 16.3013 1.18933 16.5839 1.3977 16.7923C1.60608 17.0007 1.88869 17.1178 2.18338 17.1178H17.7389C18.0336 17.1178 18.3162 17.0007 18.5246 16.7923C18.733 16.5839 18.85 16.3013 18.85 16.0066V4.89553C18.8456 4.77978 18.8231 4.66544 18.7834 4.55664ZM2.94449 16.0066H2.17227V15.2122L6.21115 11.2066L6.99449 11.99L2.94449 16.0066ZM17.7278 16.0066H16.95L12.9 11.99L13.6834 11.2066L17.7223 15.2122L17.7278 16.0066Z" fill="#7ABB66"/>
</g>
<defs>
<clipPath id="clip0_639_53643">
<rect width="20" height="20" fill="white" transform="translate(0 0.451172)"/>
</clipPath>
</defs>
</svg>
