<svg width="35" height="36" viewBox="0 0 35 36" fill="none" xmlns="http://www.w3.org/2000/svg">
<circle cx="17.5" cy="17.9512" r="17.5" fill="url(#paint0_linear_622_53651)"/>
<path fill-rule="evenodd" clip-rule="evenodd" d="M17.4997 6.28442C14.3312 6.28442 13.9339 6.29785 12.6895 6.35463C11.4477 6.41127 10.5997 6.60851 9.85756 6.89693C9.09038 7.19504 8.43976 7.59396 7.79113 8.24254C7.14254 8.89117 6.74362 9.54179 6.44552 10.309C6.15709 11.0511 5.95985 11.8992 5.90322 13.1409C5.84644 14.3853 5.83301 14.7826 5.83301 17.9511C5.83301 21.1196 5.84644 21.5169 5.90322 22.7612C5.95985 24.003 6.15709 24.8511 6.44552 25.5932C6.74362 26.3604 7.14254 27.011 7.79113 27.6596C8.43976 28.3082 9.09038 28.7071 9.85756 29.0053C10.5997 29.2937 11.4477 29.4909 12.6895 29.5475C13.9339 29.6043 14.3312 29.6178 17.4997 29.6178C20.6682 29.6178 21.0655 29.6043 22.3098 29.5475C23.5516 29.4909 24.3997 29.2937 25.1418 29.0053C25.909 28.7071 26.5596 28.3082 27.2082 27.6596C27.8568 27.011 28.2557 26.3604 28.5539 25.5932C28.8423 24.8511 29.0395 24.003 29.0961 22.7612C29.1529 21.5169 29.1663 21.1196 29.1663 17.9511C29.1663 14.7826 29.1529 14.3853 29.0961 13.1409C29.0395 11.8992 28.8423 11.0511 28.5539 10.309C28.2557 9.54179 27.8568 8.89117 27.2082 8.24254C26.5596 7.59396 25.909 7.19504 25.1418 6.89693C24.3997 6.60851 23.5516 6.41127 22.3098 6.35463C21.0655 6.29785 20.6682 6.28442 17.4997 6.28442ZM17.4997 8.38652C20.6148 8.38652 20.9838 8.39842 22.214 8.45455C23.3515 8.50642 23.9692 8.69648 24.3803 8.85625C24.9249 9.06789 25.3136 9.32071 25.7218 9.72898C26.1301 10.1372 26.3829 10.5259 26.5945 11.0704C26.7543 11.4815 26.9443 12.0993 26.9962 13.2368C27.0523 14.467 27.0642 14.836 27.0642 17.9511C27.0642 21.0662 27.0523 21.4352 26.9962 22.6654C26.9443 23.8029 26.7543 24.4207 26.5945 24.8318C26.3829 25.3763 26.1301 25.765 25.7218 26.1732C25.3136 26.5815 24.9249 26.8343 24.3803 27.0459C23.9692 27.2057 23.3515 27.3958 22.214 27.4476C20.984 27.5038 20.615 27.5157 17.4997 27.5157C14.3843 27.5157 14.0154 27.5038 12.7853 27.4476C11.6479 27.3958 11.0301 27.2057 10.619 27.0459C10.0744 26.8343 9.6858 26.5815 9.27757 26.1732C8.86934 25.765 8.61648 25.3763 8.40484 24.8318C8.24507 24.4207 8.05501 23.8029 8.00314 22.6654C7.94701 21.4352 7.93511 21.0662 7.93511 17.9511C7.93511 14.836 7.94701 14.467 8.00314 13.2368C8.05501 12.0993 8.24507 11.4815 8.40484 11.0704C8.61648 10.5259 8.86929 10.1372 9.27757 9.72898C9.6858 9.32071 10.0744 9.06789 10.619 8.85625C11.0301 8.69648 11.6479 8.50642 12.7853 8.45455C14.0155 8.39842 14.3845 8.38652 17.4997 8.38652Z" fill="white"/>
<path fill-rule="evenodd" clip-rule="evenodd" d="M17.4998 21.8401C15.352 21.8401 13.6109 20.099 13.6109 17.9512C13.6109 15.8034 15.352 14.0623 17.4998 14.0623C19.6476 14.0623 21.3887 15.8034 21.3887 17.9512C21.3887 20.099 19.6476 21.8401 17.4998 21.8401ZM17.4998 11.9602C14.191 11.9602 11.5088 14.6424 11.5088 17.9512C11.5088 21.2599 14.191 23.9422 17.4998 23.9422C20.8085 23.9422 23.4908 21.2599 23.4908 17.9512C23.4908 14.6424 20.8085 11.9602 17.4998 11.9602Z" fill="white"/>
<path fill-rule="evenodd" clip-rule="evenodd" d="M25.1272 11.7235C25.1272 12.4967 24.5003 13.1235 23.7271 13.1235C22.954 13.1235 22.3271 12.4967 22.3271 11.7235C22.3271 10.9503 22.954 10.3235 23.7271 10.3235C24.5003 10.3235 25.1272 10.9503 25.1272 11.7235Z" fill="white"/>
<defs>
<linearGradient id="paint0_linear_622_53651" x1="17.5" y1="52.9512" x2="52.5" y2="17.9512" gradientUnits="userSpaceOnUse">
<stop stop-color="#FFD522"/>
<stop offset="0.497382" stop-color="#F1000B"/>
<stop offset="1" stop-color="#B900B3"/>
</linearGradient>
</defs>
</svg>
