<svg width="16" height="21" viewBox="0 0 16 21" fill="none" xmlns="http://www.w3.org/2000/svg">
<path d="M8 20.9512C8 20.9512 15.5 13.8437 15.5 8.45117C15.5 6.46205 14.7098 4.55439 13.3033 3.14787C11.8968 1.74135 9.98912 0.951172 8 0.951172C6.01088 0.951172 4.10322 1.74135 2.6967 3.14787C1.29018 4.55439 0.5 6.46205 0.5 8.45117C0.5 13.8437 8 20.9512 8 20.9512ZM8 12.2012C7.00544 12.2012 6.05161 11.8061 5.34835 11.1028C4.64509 10.3996 4.25 9.44573 4.25 8.45117C4.25 7.45661 4.64509 6.50278 5.34835 5.79952C6.05161 5.09626 7.00544 4.70117 8 4.70117C8.99456 4.70117 9.94839 5.09626 10.6517 5.79952C11.3549 6.50278 11.75 7.45661 11.75 8.45117C11.75 9.44573 11.3549 10.3996 10.6517 11.1028C9.94839 11.8061 8.99456 12.2012 8 12.2012Z" fill="#7ABB66"/>
</svg>
