<svg width="184" height="29" viewBox="0 0 184 29" fill="none" xmlns="http://www.w3.org/2000/svg">
<g clip-path="url(#clip0_602_3287)">
<path fill-rule="evenodd" clip-rule="evenodd" d="M160.523 2.41H184L183.133 7.2H172.502L171.645 11.945L182.287 11.97L181.441 16.86H170.864C169.202 28.96 168.556 29.205 156.011 28.78L156.882 23.865C162.666 24.575 161.179 21.045 162.281 16.96L158.089 16.91L158.94 12.045H163.027L164.003 7.225H159.752L160.523 2.41Z" fill="#FF8D40"/>
<path fill-rule="evenodd" clip-rule="evenodd" d="M133.13 2.41H156.607L155.746 7.2H145.109L144.253 11.945L154.89 11.97L154.043 16.86H143.472C141.809 28.96 141.163 29.205 128.618 28.78L129.485 23.865C135.269 24.575 133.786 21.045 134.888 16.96L130.691 16.91L131.548 12.045H135.634L136.636 7.225H132.374L133.13 2.41Z" fill="#FF8D40"/>
<path fill-rule="evenodd" clip-rule="evenodd" d="M105.932 2.33499H129.284L128.432 7.19999H117.801L116.969 12H127.521L126.7 16.81H116.103C113.789 27 115.908 23.57 125.403 24.115L124.621 28.805H111.926C107.643 28.825 105.78 27.245 106.338 24.065L107.625 16.81H103.453L104.284 12H108.511L109.387 7.10999L105.131 7.13499L105.932 2.33499Z" fill="#FF8D40"/>
<path fill-rule="evenodd" clip-rule="evenodd" d="M81.1434 0H89.7269L87.5835 12.02H93.9435L95.6562 2.46L104.064 2.48L99.4021 28.78H91.0139L93.0521 16.74L86.8173 16.76L85.5453 24.16L77.0569 24.135L78.384 16.76H76.1855L77.0569 11.895H79.045L81.1434 0Z" fill="#FF8D40"/>
<path fill-rule="evenodd" clip-rule="evenodd" d="M55.8428 7.10499C56.5239 -0.545011 71.9381 3.02999 76.946 2.25999L76.0546 7.17499H64.1909L61.1862 24.11L72.8796 24.135L72.1134 28.78C46.2176 29.37 52.8481 29.195 55.8428 7.10499Z" fill="#FF8D40"/>
<path fill-rule="evenodd" clip-rule="evenodd" d="M44.7205 2.35999H53.2339L49.4679 24.135C48.8737 27.235 46.4649 28.8 42.2416 28.83C20.0566 29.615 26.3565 27.55 28.6602 9.68499L26.5418 9.70999L27.4082 4.74499H37.9598L34.6095 24.09H40.8794L44.7205 2.35999Z" fill="#FF8D40"/>
<path fill-rule="evenodd" clip-rule="evenodd" d="M3.81101 7.17499C4.40194 3.96499 6.78903 2.35999 10.9723 2.35999H25.7806L24.9794 7.17499H12.3294L11.5182 11.845C14.2675 12.585 24.2031 13.725 23.2567 16.765L21.9696 24.11C21.3036 31.635 4.97284 28 0 28.805L0.801263 24H13.5213L14.3877 19.33C11.6684 18.61 1.61755 17.4 2.50395 14.5L3.81101 7.17499Z" fill="#FF8D40"/>
</g>
<defs>
<clipPath id="clip0_602_3287">
<rect width="184" height="29" fill="white"/>
</clipPath>
</defs>
</svg>
