<svg width="152" height="152" viewBox="0 0 152 152" fill="none" xmlns="http://www.w3.org/2000/svg">
<g clip-path="url(#clip0_602_3259)">
<path d="M80.15 149.775C120.895 147.482 152.067 112.594 149.775 71.8485C147.483 31.1033 112.594 -0.0689731 71.8489 2.2233C31.1038 4.51558 -0.0684995 39.4043 2.22378 80.1495C4.51606 120.895 39.4048 152.067 80.15 149.775Z" fill="#FFDBC7"/>
<path fill-rule="evenodd" clip-rule="evenodd" d="M76.0005 20.356C87.0075 20.3548 97.7677 23.6177 106.92 29.7322C116.073 35.8466 123.206 44.5379 127.419 54.7069C131.632 64.8758 132.734 76.0657 130.587 86.8613C128.44 97.6568 123.14 107.573 115.357 115.356C107.574 123.14 97.6573 128.44 86.8617 130.587C76.0661 132.734 64.8763 131.631 54.7074 127.419C44.5384 123.206 35.8471 116.072 29.7327 106.92C23.6182 97.7672 20.3553 87.007 20.3564 76C20.3564 61.2423 26.2189 47.089 36.6542 36.6537C47.0895 26.2184 61.2428 20.356 76.0005 20.356" fill="#191C1D"/>
<path d="M20.4043 76.003C20.4043 106.721 45.3063 131.65 76.0245 131.65C106.743 131.65 131.645 106.721 131.645 76.003C131.645 45.2848 106.743 20.356 76.0245 20.356C45.3063 20.356 20.4043 45.2848 20.4043 76.003Z" fill="#FF8D40"/>
<path fill-rule="evenodd" clip-rule="evenodd" d="M67.1116 97.255C76.0423 97.255 80.8827 96.3857 87.3545 91.3548C87.9856 90.8606 88.5452 90.4438 89.1763 89.9497C89.8074 89.4555 90.3075 89.009 90.9624 88.5089C91.2542 88.2886 91.5578 88.0266 91.8555 87.7885C92.1532 87.5503 92.4509 87.2943 92.7426 87.0561C97.8927 82.5908 98.4285 83.6089 98.4285 76.5596L98.3154 66.4977C100.268 65.3784 100.197 65.3665 100.637 62.9255C100.941 61.2287 101.233 59.5437 101.495 57.8112C102.119 54.2065 102.479 50.561 102.572 46.9039C102.572 42.0515 101.042 41.4442 97.7438 39.7176C95.002 38.3983 92.185 37.2412 89.3073 36.2525C81.8174 33.4602 76.0185 32.4659 67.3855 32.4659C61.7175 32.4659 52.5546 33.3828 47.2498 35.4428C46.3343 35.7778 45.4431 36.1757 44.5825 36.6336C43.9454 36.9849 42.5225 37.7827 42.3141 38.2173C42.1057 38.6519 41.5104 54.1377 41.7545 56.799C41.9212 58.5852 42.5344 57.3051 41.1591 59.4544C40.0915 61.1189 39.3332 62.9623 38.9205 64.8962C38.3251 67.8016 38.0988 76.6073 38.9205 79.2984C39.4325 80.9714 42.2665 84.9902 43.5704 86.2048C44.5154 87.1659 45.509 88.078 46.5473 88.9375C46.9402 89.2352 47.2677 89.5329 47.6487 89.8246C52.4117 93.3374 61.3424 97.2609 67.1176 97.2609" fill="#191C1D"/>
<path fill-rule="evenodd" clip-rule="evenodd" d="M44.2608 38.9199C46.678 40.706 52.3758 42.9327 55.4539 43.6233C57.7428 44.1227 60.0649 44.455 62.402 44.6176C63.9857 44.7307 68.7487 44.7426 69.7192 45.213C69.874 46.1061 69.4631 46.1418 68.7308 46.237C62.9676 47.0349 54.7752 45.7727 49.512 43.5995C47.4699 42.766 44.9098 41.2835 43.9929 40.9203C43.8262 45.3261 43.3201 52.6612 43.6356 56.9241C46.4816 58.2161 47.5413 59.3889 51.6197 60.8714C54.4596 61.9014 57.883 62.6933 60.9433 63.4732C68.9035 65.4916 81.1861 65.3784 89.8727 65.3784C92.1076 65.4306 94.3437 65.3591 96.5707 65.1641C98.8272 64.8367 98.5414 64.1579 99.1189 60.7524C99.7679 56.9181 100.607 52.1253 100.667 48.172C97.5293 48.69 95.4752 49.1306 92.1887 48.6245C91.4683 48.5114 90.2299 48.3864 89.968 47.7434C90.2657 47.3861 90.5633 47.3861 91.2063 47.3564C92.7089 47.3142 94.2058 47.1549 95.6836 46.8801C96.7612 46.6657 100.024 45.731 100.631 45.2547C100.611 44.5764 100.401 43.9174 100.025 43.3523C99.6498 42.7872 99.1233 42.3386 98.5057 42.0575C97.3529 41.389 96.1599 40.7925 94.9334 40.2714C92.409 39.1878 89.7536 38.2114 87.1101 37.2945C76.6315 33.621 65.6765 33.4662 54.6859 35.288C52.7822 35.5941 50.9037 36.0399 49.0655 36.6217C48.101 36.9313 45.2432 37.9672 44.4454 38.7115C44.424 38.7298 44.4041 38.7497 44.3858 38.771L44.2608 38.9199Z" fill="white"/>
<path fill-rule="evenodd" clip-rule="evenodd" d="M40.2772 71.0941C40.2307 73.4456 40.3282 75.7978 40.569 78.1374C41.0036 81.4179 46.3441 86.5858 48.6959 88.3898C51.1005 90.172 53.7237 91.6387 56.5013 92.7539C57.8171 93.2957 64.5984 95.9333 65.944 95.2724C66.1464 94.3138 65.1223 93.7006 65.944 92.4086C66.9263 90.8249 70.2485 90.7296 70.9094 92.4086C71.4155 93.6768 70.4748 94.0757 70.4807 95.195C72.3145 96.0047 78.3159 94.3853 80.1914 93.7363C82.5252 92.9266 85.6331 90.5391 87.3359 89.1876L93.7362 83.9185C94.3316 83.4779 94.7186 83.1029 95.2782 82.6087C95.5823 82.3931 95.8408 82.1196 96.039 81.8039C96.2372 81.4882 96.3712 81.1365 96.4333 80.769C96.7607 79.0424 96.5345 69.3199 96.4988 66.9741C85.782 67.2479 70.7546 67.5159 61.0083 65.301C55.7511 64.1103 50.2617 62.6992 45.6297 60.0558C44.9908 59.6448 44.3151 59.294 43.6113 59.0079C43.3989 59.4054 43.1497 59.7821 42.8671 60.1332C42.091 61.3836 41.473 62.7255 41.0274 64.1282C40.4778 66.4041 40.2236 68.7413 40.2713 71.0822" fill="white"/>
<path fill-rule="evenodd" clip-rule="evenodd" d="M51.1013 105.156C52.1313 105.376 52.292 105.054 53.0898 104.656C53.6852 104.358 54.233 104.06 54.876 103.697L60.3475 100.97C61.2882 100.494 61.3239 100.446 62.3718 100.821C63.8826 101.293 65.4394 101.602 67.0157 101.744C70.092 102.024 73.1853 101.438 75.9464 100.053C78.6137 98.7792 81.9716 98.1957 85.0497 98.023C84.9604 102.054 85.008 104.066 85.8416 107.763C86.4786 110.58 87.1276 114.027 90.2772 113.717C91.7239 113.318 92.1347 112.479 92.9861 111.621C93.8375 110.764 94.6115 110.097 95.4331 109.347L99.0054 105.864C99.26 105.681 99.4641 105.437 99.5984 105.154C99.7327 104.87 99.793 104.558 99.7734 104.245C101.059 104.191 102.47 104.197 103.673 103.578C103.84 103.495 104.013 103.37 104.155 103.304L104.405 103.215C104.679 103.167 104.495 103.167 104.656 103.215C105.138 105.483 104.656 109.049 104.441 111.419C104.334 112.61 103.673 118.945 103.846 119.528C104.822 119.701 104.614 118.724 104.906 116.599C105.054 115.527 105.114 113.753 105.453 112.896L105.858 117.79C105.906 118.522 105.942 118.73 106.638 118.564C107.001 116.777 106.043 108.037 106.376 105.638C106.555 104.304 106.751 102.911 106.906 101.571C108.24 101.44 112.229 100.934 110.901 98.7792C111.645 98.3267 112.163 98.3743 112.651 97.636C112.832 97.3887 112.928 97.0906 112.928 96.7846C112.928 96.4787 112.832 96.1806 112.651 95.9332L112.247 95.5343C114.932 94.4984 114.932 91.3667 112.247 90.9142C112.413 90.4796 112.205 90.8249 112.532 90.4379C113.217 89.6163 113.961 88.6101 112.788 87.2288C111.431 85.6272 109.704 86.7228 108.895 86.9669C109.192 83.6506 109.776 80.2689 110.21 76.9466C110.389 75.5594 111.61 67.6111 111.479 66.9502C111.115 66.5573 110.562 66.6228 109.984 66.5573C109.294 66.4799 108.734 66.2834 108.436 66.6406C108.138 66.9979 106.62 86.3536 106.418 88.6696L105.662 88.5208C105.424 87.5325 105.066 66.4501 104.757 65.4439C104.036 65.2832 102.185 65.2891 101.655 65.6345L103.358 87.2169C102.398 86.7015 101.337 86.4047 100.25 86.3477C99.0926 86.3254 97.9483 86.5936 96.9216 87.1276C95.195 88.1636 95.7308 89.7235 94.6175 92.8968C93.7661 93.1647 92.4265 93.1826 91.3965 93.4029C89.5684 93.805 87.8822 94.6913 86.5144 95.969C85.8535 96.5643 86.0142 96.1714 85.1152 96.2071C82.4326 96.4433 79.7729 96.8912 77.161 97.5467C75.7321 97.9754 74.4341 98.9042 71.8026 99.6305C69.3794 100.291 67.754 100.16 65.301 99.696C61.1751 98.9161 62.2765 98.1123 59.5795 99.3329C57.7933 100.149 56.2811 100.893 54.5961 101.804C51.6193 103.417 50.0177 103.637 51.0834 105.132" fill="#191C1D"/>
<path fill-rule="evenodd" clip-rule="evenodd" d="M51.1018 105.156C52.4473 106.585 52.4652 106.817 54.3882 108.168C55.6525 109.061 56.9934 109.84 58.3951 110.496C61.4388 111.936 64.634 113.03 67.9212 113.759C74.0238 115.164 84.7704 116.527 90.2657 113.723C87.1162 114.027 86.4672 110.58 85.8302 107.769C84.9966 104.072 84.949 102.06 85.0383 98.029C81.9602 98.2017 78.6023 98.7851 75.935 100.059C73.1739 101.444 70.0806 102.03 67.0043 101.75C65.4279 101.608 63.8712 101.299 62.3603 100.827C61.3125 100.452 61.2768 100.5 60.3361 100.976L54.8645 103.703C54.2334 104.042 53.6738 104.364 53.0784 104.662C52.2508 105.06 52.1198 105.382 51.0898 105.162" fill="white"/>
<path fill-rule="evenodd" clip-rule="evenodd" d="M97.851 104.388C97.4581 103.846 96.4102 103.06 97.4938 102.465C98.3512 101.988 100.584 103.024 102.781 102.048C103.882 101.56 103.608 100.917 104.501 100.583C104.388 98.5112 103.906 95.9273 104.079 93.897C102.977 93.7303 102.888 93.4981 102.013 93.1647C102.459 94.5281 102.686 94.6651 102.334 96.3798C102.285 96.8622 102.114 97.3243 101.837 97.7223C101.56 98.1202 101.186 98.4409 100.751 98.6541C99.0299 99.5472 95.3921 100.5 95.3445 98.2909C95.3445 97.0525 96.5829 96.9394 97.7915 96.9454C99.536 96.9454 99.7324 96.8144 100.518 95.8082C101.947 93.9804 98.5715 92.0573 99.0299 90.4498C99.9885 89.9437 100.161 90.3724 101.542 91.194C102.025 91.4798 103.549 92.4324 104.067 92.3848C105.121 87.5503 99.1013 87.0264 97.5653 88.491C97.0235 88.9971 96.8627 90.682 96.6305 91.6465C95.7553 95.2962 95.029 94.028 91.6889 94.7901C89.9801 95.1652 89.0454 95.8916 87.7951 96.8501C87.2712 97.249 87.0152 97.1835 86.9794 98.148C86.7923 100.643 86.9183 103.151 87.3545 105.614C88.9859 114.182 89.9027 112.068 91.5638 110.437L97.851 104.388Z" fill="white"/>
<path fill-rule="evenodd" clip-rule="evenodd" d="M72.0763 61.2823C75.3926 61.2823 78.173 58.9603 78.1492 55.8167C78.1253 52.6731 75.3509 50.3928 72.0763 50.3928C68.9803 50.3928 66.1642 52.7386 66.1225 55.8167C66.0808 58.8948 68.9089 61.2823 72.0763 61.2823" fill="#60A04D"/>
<path fill-rule="evenodd" clip-rule="evenodd" d="M52.1732 86.3298C52.2566 85.0497 49.75 82.6861 50.9825 81.4239C52.2149 80.1617 55.1501 81.3584 56.4123 81.9121C58.6926 82.9242 58.6628 83.6387 61.8064 82.8111C62.5983 82.6027 63.926 82.305 63.8307 81.4417C63.4735 78.0719 52.1256 77.8992 50.0239 78.6077C46.3683 79.8402 48.3866 82.9897 50.268 84.7044C50.8588 85.2961 51.4959 85.8396 52.1732 86.3298" fill="#191C1D"/>
<path fill-rule="evenodd" clip-rule="evenodd" d="M78.1674 84.1388C80.0785 84.1388 81.6741 82.1026 85.2464 82.1026C86.8301 82.1026 87.5565 83.079 86.8361 84.4841C86.2697 85.4505 85.78 86.4598 85.3714 87.5027C85.8656 87.3777 87.3124 86.0202 87.753 85.6273C88.5256 84.9276 89.1633 84.0922 89.6343 83.1624C90.9739 80.1855 87.0147 79.3877 84.3891 79.3877C82.0076 79.3877 77.703 79.6794 75.7501 80.4653C74.988 80.769 73.1543 82.1622 74.3927 83.0731C75.5571 83.7115 76.8526 84.0741 78.1793 84.1329" fill="#191C1D"/>
<path fill-rule="evenodd" clip-rule="evenodd" d="M45.2845 66.3727C45.5226 66.855 46.3442 67.0753 46.9218 67.3075C48.3388 67.9029 52.2028 66.5633 56.0072 68.5637C53.0303 68.2363 53.334 68.1708 50.4702 68.2125C49.4997 68.2125 46.8086 68.2125 46.505 68.9805C46.6002 69.4151 46.6955 69.4092 47.1004 69.5759C48.8389 70.338 49.9046 70.0343 52.0599 70.0343C53.7078 70.0525 55.351 70.2119 56.9717 70.5106C57.9541 70.6833 60.8417 71.618 61.4371 71.3561C61.4371 70.6952 57.579 67.7838 57.0551 67.4504C53.9591 65.6226 50.7084 65.2892 47.1123 65.7595C46.4097 65.8548 45.5881 65.8786 45.2666 66.3549" fill="#191C1D"/>
<path fill-rule="evenodd" clip-rule="evenodd" d="M78.0479 73.3327C78.4528 73.6661 80.2747 73.4815 81.2689 73.4815C85.1508 73.4815 87.0858 74.2258 90.277 75.0057C90.9855 75.1784 92.8907 75.1843 93.2539 74.5234C92.9622 73.9281 92.1822 73.7376 91.5213 73.5113C89.1561 72.5618 86.6441 72.03 84.097 71.9395C85.6807 71.2191 89.5745 71.9395 90.9319 72.3622C91.5745 72.6194 92.2498 72.7857 92.9383 72.8564C93.623 72.8266 94.6768 72.7314 95.0817 72.3384C94.9686 71.743 94.6054 71.743 93.5694 71.3322C88.3837 69.2067 84.7102 69.6592 79.9353 72.13C79.3399 72.4456 78.2385 72.8147 78.042 73.3208" fill="#191C1D"/>
<path fill-rule="evenodd" clip-rule="evenodd" d="M59.86 85.3355C58.318 88.3124 65.4625 90.2057 68.231 90.2057C72.2498 90.2057 72.8095 88.8661 76.0543 87.7408C77.507 87.2407 78.0845 87.5682 78.2632 86.7346C77.0188 85.3355 72.1784 88.235 68.231 88.235C66.1234 88.235 64.9624 88.1695 63.1644 87.0859C62.4737 86.6692 60.5626 85.1271 59.86 85.3355" fill="#191C1D"/>
<path fill-rule="evenodd" clip-rule="evenodd" d="M75.548 75.4106C76.2862 76.5656 77.3341 78.0838 74.3572 78.8102C71.9161 79.4055 62.2948 79.5068 61.7471 76.7323C61.5447 75.7023 62.4437 75.2558 62.5032 74.6247C58.663 76.8454 61.0029 80.4296 68.8976 80.7332C70.8683 80.8047 77.7092 80.3582 77.5425 77.5658C77.4889 76.6668 76.3517 75.5892 75.5777 75.4106" fill="#191C1D"/>
<path fill-rule="evenodd" clip-rule="evenodd" d="M104.87 88.5267L104.239 69.9748L102.81 70.0164C102.679 70.8976 103.066 73.6423 103.138 74.6961C103.239 76.2917 103.417 77.9231 103.525 79.5365C103.632 81.15 103.781 82.6623 103.912 84.2519C103.971 85.02 104.066 85.8535 104.114 86.6334C104.191 87.8242 104.114 88.0028 104.87 88.5387" fill="#60A04D"/>
<path fill-rule="evenodd" clip-rule="evenodd" d="M107.252 88.3541C108.341 87.8421 108.252 85.9726 108.443 84.496C108.74 82.2753 110.282 71.743 110.151 71.0226L108.8 70.9036L107.252 88.3541Z" fill="#60A04D"/>
<path fill-rule="evenodd" clip-rule="evenodd" d="M107.442 91.5929L107.853 91.7001C108.484 91.7001 110.234 90.9142 110.728 90.6165C113.705 88.7589 111.735 85.9964 108.781 88.5386C108.013 89.2055 107.15 89.9735 107.442 91.5929Z" fill="white"/>
<path fill-rule="evenodd" clip-rule="evenodd" d="M107.168 94.6294C108.585 95.8737 114.515 94.5937 112.884 92.3967C111.544 90.6106 107.239 93.9685 107.168 94.6294Z" fill="white"/>
<path fill-rule="evenodd" clip-rule="evenodd" d="M106.752 97.5527C107.407 97.9873 111.723 98.3386 111.777 96.612C111.009 96.0166 109.991 96.3202 109.032 96.4989C108.592 96.5721 108.156 96.6735 107.728 96.8025C107.133 96.9811 106.811 97.0109 106.752 97.5527" fill="white"/>
<path fill-rule="evenodd" clip-rule="evenodd" d="M102.691 69.296L104.204 69.2246L104.102 66.1286L102.447 66.1465L102.691 69.296Z" fill="#60A04D"/>
<path fill-rule="evenodd" clip-rule="evenodd" d="M108.829 70.2189L110.335 70.3498L110.74 67.373L109.097 67.1943L108.829 70.2189Z" fill="#60A04D"/>
<path fill-rule="evenodd" clip-rule="evenodd" d="M110.038 99.4877C109.443 98.9399 109.103 98.8923 108.145 99.0769C107.609 99.1959 106.156 99.3626 106.138 99.9163C106.091 101.202 109.52 100.047 110.038 99.4877Z" fill="white"/>
</g>
<defs>
<clipPath id="clip0_602_3259">
<rect width="152" height="152" fill="white"/>
</clipPath>
</defs>
</svg>
