<svg width="40" height="40" viewBox="0 0 40 40" fill="none" xmlns="http://www.w3.org/2000/svg">
<path d="M37.3388 15.2214C36.8303 14.848 35.9963 14.4029 34.9111 14.4029C34.74 14.403 34.5692 14.4141 34.3996 14.4362C34.1624 14.467 33.5739 14.5749 32.9479 14.9213C31.8521 13.8714 30.7225 12.9413 29.5588 12.1308C29.5377 12.1133 29.5153 12.0974 29.4916 12.0833C28.4171 11.3402 27.3199 10.703 26.2 10.172C26.0112 10.0827 25.8162 9.99279 25.6152 9.90223C25.6075 9.89865 25.6001 9.89493 25.5922 9.89177C23.3428 8.88159 20.3374 7.86425 16.435 8.01592C13.9075 8.11391 11.3867 8.70887 9.14498 9.73625C8.63841 9.96855 8.1441 10.2258 7.66395 10.507C7.64371 10.5172 7.62413 10.5286 7.60532 10.5412C5.92048 11.5365 4.5316 12.7741 3.5391 14.1788C3.28662 14.5361 3.0652 14.8812 2.87481 15.2141C2.85777 15.2387 2.8429 15.2646 2.83035 15.2917C1.94824 16.861 1.76365 18.1428 2.30198 19.0384C2.66792 19.6474 3.33011 20.046 4.33284 20.6498C4.93942 21.0161 5.57775 21.3293 6.24042 21.5856L6.39555 21.6452C6.3926 21.7381 6.39064 21.8311 6.39064 21.9247V23.1881C6.39064 28.0476 10.4198 32.0011 15.3724 32.0011H24.087C29.0396 32.0011 33.0689 28.0476 33.0689 23.1881V21.9247C33.0689 21.7542 33.0633 21.5848 33.0536 21.4165C33.1867 21.4951 33.3237 21.5669 33.4643 21.6316C33.8333 21.8014 34.2533 21.8315 34.6435 21.7162C35.0338 21.6008 35.3669 21.3481 35.5789 21.0065C35.9366 20.4254 36.1119 19.7736 36.0858 19.1218C36.0796 18.965 36.0619 18.8089 36.0328 18.6546C36.1342 18.621 36.234 18.5828 36.3323 18.5399C36.8563 18.3104 37.313 17.9551 37.6601 17.5066C37.7928 17.3362 37.8897 17.1417 37.9454 16.9343C38.001 16.7269 38.0143 16.5108 37.9844 16.2983C37.9545 16.0859 37.8821 15.8814 37.7713 15.6965C37.6605 15.5117 37.5135 15.3502 37.3388 15.2214ZM29.9145 14.3798C29.9667 14.1851 29.998 13.9856 30.0078 13.7845C30.7125 14.3327 31.4045 14.9291 32.0837 15.5737C31.9696 15.6893 31.8635 15.8122 31.7663 15.9418C31.5916 16.1745 31.447 16.4275 31.3358 16.6951C30.6393 16.3441 29.9176 16.002 29.1672 15.6886C29.5246 15.321 29.7817 14.8708 29.9145 14.3798ZM28.7812 12.8865C28.876 13.1104 28.9278 13.3495 28.934 13.5919C28.9383 13.7664 28.9175 13.9406 28.8721 14.1095C28.829 14.2686 28.765 14.4216 28.6816 14.5645C28.5315 14.8215 28.3282 15.0448 28.0848 15.2201C28.0708 15.2302 28.0568 15.2408 28.0444 15.2519C27.4058 15.0209 26.755 14.8237 26.0948 14.6612C26.0203 14.643 25.9471 14.6261 25.8738 14.6092C26.0219 14.2711 26.1355 13.9194 26.213 13.5594C26.3661 12.8393 26.3744 12.0968 26.2374 11.3736C27.1186 11.822 27.9684 12.3275 28.7812 12.8865ZM24.961 10.7726C25.1458 11.2757 25.2453 11.8052 25.2556 12.3399C25.2592 12.5812 25.2431 12.8224 25.2076 13.0612C25.1936 13.1537 25.1781 13.247 25.1578 13.3418C25.0795 13.7056 24.956 14.0585 24.7899 14.3927C23.7932 14.2244 22.9665 14.1696 22.3862 14.1578C22.2892 14.1559 22.1875 14.1538 22.0825 14.1523C22.3068 13.4359 22.3992 12.6859 22.3554 11.9377C22.3076 11.1422 22.1048 10.3631 21.758 9.64253C22.9631 9.95632 24.0277 10.362 24.961 10.7726ZM16.4776 9.07289C16.7233 9.06372 16.965 9.05913 17.2028 9.05913C18.2541 9.05842 19.3033 9.14994 20.338 9.33259C20.5118 9.58057 20.6641 9.84243 20.7932 10.1154C21.2849 11.1505 21.4147 12.3159 21.1623 13.4307C21.1051 13.6841 21.0291 13.9331 20.9351 14.1757C20.2203 14.2198 19.5122 14.3379 18.8227 14.5279C18.7311 14.5531 18.6391 14.5798 18.5469 14.6081C18.4952 13.8931 18.3495 13.1877 18.1134 12.5094C17.5906 11.0093 16.7204 9.89782 15.8762 9.10744C16.0762 9.09298 16.2766 9.08074 16.4776 9.07289ZM14.4119 9.27121C14.6835 9.47316 14.9422 9.69125 15.1867 9.92425C15.911 10.6153 16.6479 11.5743 17.0933 12.8517C17.2423 13.2813 17.3499 13.7236 17.4146 14.1729C17.4544 14.4449 17.4788 14.7188 17.4877 14.9934C17.1776 15.1241 16.8705 15.2679 16.5746 15.4245C16.2438 15.5994 15.5767 15.9798 14.8259 16.5643L14.8119 16.5756C14.6892 15.7044 14.4097 14.8872 13.9776 14.1373C12.8071 12.1071 10.8401 11.1827 9.45103 10.7678C10.9628 10.0529 12.6504 9.53903 14.4119 9.27121ZM4.42514 14.7815C5.3123 13.5261 6.55601 12.4234 8.03382 11.5288C8.16805 11.5489 8.3424 11.5792 8.54844 11.6252C9.71571 11.8818 11.8638 12.6195 13.0387 14.6583C13.4304 15.3383 13.6735 16.0866 13.7644 16.8895C13.7855 17.0752 13.7984 17.264 13.8031 17.4557C13.5571 17.6911 13.3005 17.9481 13.0007 18.2487C12.4642 18.7864 12.1107 19.1598 12.096 19.1752C12.0041 19.2725 11.9219 19.3602 11.8456 19.4418C11.6293 19.6729 11.4691 19.8438 11.2653 20.0381C11.1474 19.1429 10.8137 18.0288 9.97267 17.0152C8.68352 15.4601 6.58659 14.6531 4.4055 14.8097L4.42514 14.7815ZM4.89628 19.7476C4.0317 19.227 3.46055 18.8832 3.2308 18.5009C2.91717 17.9793 3.0824 17.0884 3.67964 15.974C3.74818 15.9604 3.81672 15.9478 3.88527 15.9363C5.93016 15.5951 7.95457 16.2569 9.13671 17.6824C10.0124 18.7383 10.2184 19.9395 10.242 20.7367C10.2432 20.778 10.2439 20.8193 10.2442 20.8581C10.0949 20.9542 9.94036 21.0422 9.78135 21.122C8.98817 21.5073 7.33812 20.872 6.63344 20.6005C6.02994 20.3668 5.44873 20.0814 4.89628 19.7476ZM31.9788 23.1883C31.9788 27.4583 28.4383 30.9321 24.0865 30.9321H15.3717C11.0199 30.9321 7.4795 27.4583 7.4795 23.1883V22.0204C8.00787 22.1763 8.5866 22.3002 9.13685 22.3002C9.53688 22.3002 9.92148 22.2351 10.2601 22.0706C10.6586 21.877 11.075 21.5851 11.0925 21.5727C11.2426 21.4671 11.4589 21.3062 11.801 20.9971C12.1431 20.688 12.3518 20.4651 12.6398 20.1576C12.7148 20.0774 12.7956 19.9909 12.8862 19.8953C12.8897 19.8916 13.2454 19.5159 13.771 18.9892C14.4736 18.2849 14.8977 17.8599 15.4962 17.3943C16.182 16.8606 16.7866 16.5155 17.0861 16.3572C17.7372 16.0131 18.4385 15.7332 19.1142 15.5473C20.4572 15.1777 21.5594 15.1999 22.3641 15.217C23.1265 15.2325 24.3475 15.3271 25.8347 15.6897C27.5298 16.1026 29.0957 16.7717 30.5543 17.4934C30.7532 17.7718 30.9332 18.0626 31.0933 18.3641C31.1536 19.0059 31.3722 19.5965 31.6471 20.0503C31.6955 20.1301 31.7465 20.2055 31.7986 20.2789C31.9184 20.8196 31.9787 21.3714 31.9787 21.9247L31.9788 23.1883ZM34.6563 20.4598C34.6053 20.542 34.5335 20.6099 34.4479 20.6568C34.3623 20.7037 34.2658 20.7281 34.1677 20.7277C34.0824 20.7277 33.9981 20.7092 33.9209 20.6737C33.513 20.4863 32.9531 20.1353 32.5743 19.5097C32.2097 18.908 32.0161 18.0577 32.2764 17.2591L34.9292 18.6628C34.9753 18.8262 35.0021 18.9943 35.009 19.1637C35.0306 19.7153 34.8394 20.1616 34.6561 20.4594L34.6563 20.4598ZM36.8023 16.8678C36.5656 17.1749 36.2534 17.4181 35.8948 17.5745C35.7438 17.6399 35.5862 17.6896 35.4246 17.7229L32.8232 16.3466C33.498 15.6353 34.4095 15.5024 34.5414 15.4853C34.664 15.4692 34.7875 15.4611 34.9111 15.4611C35.7044 15.4611 36.3223 15.7966 36.6925 16.0687C36.95 16.2573 36.9956 16.6162 36.8017 16.8667L36.8023 16.8678Z" fill="#FF8D40"/>
<path d="M13.2732 22.7681C13.5091 22.9025 13.7758 22.9763 14.0486 22.9828H14.0859C14.3714 22.9827 14.6517 22.9086 14.8987 22.7681C15.0233 22.6967 15.114 22.5798 15.1508 22.4429C15.1877 22.3061 15.1677 22.1604 15.0953 22.038C15.0228 21.9156 14.9039 21.8264 14.7645 21.7899C14.6251 21.7534 14.4766 21.7727 14.3517 21.8435C14.267 21.8905 14.1713 21.9148 14.0741 21.914C13.985 21.9118 13.8978 21.8876 13.8208 21.8435C13.696 21.7749 13.5487 21.7571 13.4107 21.7942C13.2727 21.8312 13.1551 21.92 13.0832 22.0414C13.0114 22.1628 12.9911 22.307 13.0268 22.443C13.0624 22.5789 13.1511 22.6956 13.2738 22.7679L13.2732 22.7681Z" fill="#FF8D40"/>
<path d="M23.3683 21.5044C23.8326 21.5044 24.1698 21.2882 24.2994 21.1896C24.3559 21.1466 24.4033 21.0931 24.4387 21.0321C24.4741 20.9711 24.497 20.9039 24.506 20.8342C24.5149 20.7646 24.5098 20.6939 24.4909 20.6262C24.472 20.5584 24.4398 20.495 24.3959 20.4396C24.352 20.3841 24.2975 20.3377 24.2353 20.3029C24.1732 20.2681 24.1047 20.2457 24.0337 20.2369C23.9627 20.2281 23.8906 20.2331 23.8216 20.2516C23.7526 20.2702 23.688 20.3019 23.6315 20.3449C23.6003 20.3687 23.4881 20.4462 23.3392 20.4342C23.2567 20.4272 23.1782 20.3967 23.1132 20.3465C23.0569 20.3032 22.9924 20.2712 22.9235 20.2524C22.8546 20.2335 22.7826 20.2281 22.7116 20.2366C22.6405 20.245 22.5719 20.2671 22.5096 20.3016C22.4473 20.3361 22.3925 20.3823 22.3483 20.4375C22.3042 20.4928 22.2716 20.556 22.2524 20.6236C22.2331 20.6912 22.2277 20.7619 22.2363 20.8316C22.2449 20.9013 22.2674 20.9686 22.3025 21.0298C22.3377 21.0909 22.3847 21.1447 22.4411 21.188C22.6754 21.369 22.9593 21.4777 23.2567 21.5003C23.2947 21.5031 23.3319 21.5044 23.3683 21.5044Z" fill="#FF8D40"/>
<path d="M19.3857 24.3612C19.2775 24.4219 19.1549 24.4535 19.0303 24.4529C18.9133 24.4507 18.7989 24.4192 18.6979 24.3612C18.5736 24.295 18.4279 24.2788 18.2916 24.316C18.1553 24.3533 18.0391 24.4411 17.9677 24.5608C17.8962 24.6806 17.875 24.823 17.9086 24.9578C17.9422 25.0927 18.0279 25.2094 18.1476 25.2833C18.4102 25.434 18.7079 25.5159 19.012 25.5212H19.0421C19.3563 25.5209 19.6647 25.4387 19.936 25.2831C20.0557 25.2091 20.1414 25.0924 20.175 24.9576C20.2086 24.8227 20.1874 24.6804 20.1159 24.5606C20.0444 24.4408 19.9283 24.353 19.792 24.3157C19.6557 24.2785 19.51 24.295 19.3857 24.3612Z" fill="#FF8D40"/>
<path d="M28.3645 23.3311C28.2671 23.3941 28.1534 23.4285 28.0367 23.4302H28.0309C27.9123 23.4296 27.7964 23.3951 27.6973 23.3311C27.6376 23.2923 27.5708 23.2655 27.5005 23.2521C27.4303 23.2387 27.3581 23.239 27.288 23.253C27.2179 23.2669 27.1512 23.2943 27.0919 23.3336C27.0326 23.3728 26.9817 23.4231 26.9422 23.4817C26.8624 23.5999 26.8338 23.7443 26.8626 23.8833C26.8914 24.0222 26.9752 24.1442 27.0957 24.2225C27.3736 24.4021 27.6988 24.4983 28.0315 24.4993H28.0468C28.3741 24.4962 28.6934 24.4001 28.9661 24.2225C29.0865 24.1442 29.1703 24.0221 29.1991 23.8832C29.2278 23.7442 29.1991 23.5998 29.1193 23.4816C29.0395 23.3634 28.9151 23.2812 28.7735 23.253C28.6319 23.2248 28.4849 23.2528 28.3645 23.3311Z" fill="#FF8D40"/>
<path d="M24.5022 27.5348C24.3753 27.6206 24.2241 27.6651 24.0699 27.6621C23.9313 27.6568 23.7972 27.6128 23.6834 27.535C23.6247 27.4946 23.5585 27.4658 23.4886 27.4505C23.4186 27.4352 23.3462 27.4335 23.2756 27.4457C23.205 27.4579 23.1376 27.4836 23.0771 27.5214C23.0166 27.5592 22.9644 27.6083 22.9233 27.666C22.8822 27.7236 22.8532 27.7887 22.8378 27.8574C22.8224 27.9261 22.8209 27.9971 22.8336 28.0663C22.8462 28.1356 22.8726 28.2017 22.9113 28.2609C22.9501 28.3201 23.0003 28.3712 23.0592 28.4113C23.3461 28.6086 23.6853 28.7195 24.0354 28.7306C24.0545 28.7306 24.0734 28.7314 24.0915 28.7314C24.4611 28.7299 24.8214 28.6184 25.125 28.4116C25.1842 28.3717 25.2348 28.3206 25.2739 28.2614C25.3129 28.2022 25.3396 28.136 25.3525 28.0666C25.3653 27.9973 25.3641 27.9261 25.3488 27.8572C25.3335 27.7883 25.3044 27.723 25.2633 27.6652C25.2222 27.6074 25.1698 27.5581 25.1092 27.5202C25.0486 27.4823 24.9809 27.4565 24.9102 27.4444C24.8394 27.4323 24.7668 27.434 24.6967 27.4496C24.6266 27.4651 24.5603 27.494 24.5017 27.5348H24.5022Z" fill="#FF8D40"/>
<path d="M14.5385 27.95C14.4141 28.0092 14.2789 28.0433 14.1409 28.0503C13.9655 28.0588 13.7907 28.0242 13.6325 27.9494C13.568 27.9187 13.4978 27.9007 13.4262 27.8967C13.3545 27.8926 13.2827 27.9024 13.2149 27.9257C13.1472 27.9489 13.0847 27.985 13.0312 28.032C12.9778 28.079 12.9343 28.1359 12.9033 28.1994C12.8722 28.263 12.8543 28.3319 12.8506 28.4022C12.8468 28.4726 12.8572 28.5429 12.8813 28.6093C12.9053 28.6757 12.9425 28.7367 12.9907 28.789C13.0388 28.8412 13.097 28.8836 13.162 28.9137C13.451 29.0493 13.7673 29.1198 14.0877 29.1201C14.1243 29.1201 14.1608 29.1193 14.1974 29.1173C14.4798 29.103 14.7564 29.0334 15.0109 28.9125C15.0754 28.8821 15.1331 28.8395 15.1808 28.7871C15.2285 28.7348 15.2652 28.6738 15.2888 28.6075C15.3125 28.5412 15.3226 28.471 15.3186 28.4009C15.3146 28.3308 15.2965 28.2622 15.2655 28.199C15.2344 28.1357 15.191 28.0791 15.1377 28.0323C15.0843 27.9855 15.0221 27.9495 14.9546 27.9263C14.8182 27.8794 14.6684 27.8877 14.5382 27.9492L14.5385 27.95Z" fill="#FF8D40"/>
<path d="M37.3388 15.2214C36.8303 14.848 35.9963 14.4029 34.9111 14.4029C34.74 14.403 34.5692 14.4141 34.3996 14.4362C34.1624 14.467 33.5739 14.5749 32.9479 14.9213C31.8521 13.8714 30.7225 12.9413 29.5588 12.1308C29.5377 12.1133 29.5153 12.0974 29.4916 12.0833C28.4171 11.3402 27.3199 10.703 26.2 10.172C26.0112 10.0827 25.8162 9.99279 25.6152 9.90223C25.6075 9.89865 25.6001 9.89493 25.5922 9.89177C23.3428 8.88159 20.3374 7.86425 16.435 8.01592C13.9075 8.11391 11.3867 8.70887 9.14498 9.73625C8.63841 9.96855 8.1441 10.2258 7.66395 10.507C7.64371 10.5172 7.62413 10.5286 7.60532 10.5412C5.92048 11.5365 4.5316 12.7741 3.5391 14.1788C3.28662 14.5361 3.0652 14.8812 2.87481 15.2141C2.85777 15.2387 2.8429 15.2646 2.83035 15.2917C1.94824 16.861 1.76365 18.1428 2.30198 19.0384C2.66792 19.6474 3.33011 20.046 4.33284 20.6498C4.93942 21.0161 5.57775 21.3293 6.24042 21.5856L6.39555 21.6452C6.3926 21.7381 6.39064 21.8311 6.39064 21.9247V23.1881C6.39064 28.0476 10.4198 32.0011 15.3724 32.0011H24.087C29.0396 32.0011 33.0689 28.0476 33.0689 23.1881V21.9247C33.0689 21.7542 33.0633 21.5848 33.0536 21.4165C33.1867 21.4951 33.3237 21.5669 33.4643 21.6316C33.8333 21.8014 34.2533 21.8315 34.6435 21.7162C35.0338 21.6008 35.3669 21.3481 35.5789 21.0065C35.9366 20.4254 36.1119 19.7736 36.0858 19.1218C36.0796 18.965 36.0619 18.8089 36.0328 18.6546C36.1342 18.621 36.234 18.5828 36.3323 18.5399C36.8563 18.3104 37.313 17.9551 37.6601 17.5066C37.7928 17.3362 37.8897 17.1417 37.9454 16.9343C38.001 16.7269 38.0143 16.5108 37.9844 16.2983C37.9545 16.0859 37.8821 15.8814 37.7713 15.6965C37.6605 15.5117 37.5135 15.3502 37.3388 15.2214ZM29.9145 14.3798C29.9667 14.1851 29.998 13.9856 30.0078 13.7845C30.7125 14.3327 31.4045 14.9291 32.0837 15.5737C31.9696 15.6893 31.8635 15.8122 31.7663 15.9418C31.5916 16.1745 31.447 16.4275 31.3358 16.6951C30.6393 16.3441 29.9176 16.002 29.1672 15.6886C29.5246 15.321 29.7817 14.8708 29.9145 14.3798ZM28.7812 12.8865C28.876 13.1104 28.9278 13.3495 28.934 13.5919C28.9383 13.7664 28.9175 13.9406 28.8721 14.1095C28.829 14.2686 28.765 14.4216 28.6816 14.5645C28.5315 14.8215 28.3282 15.0448 28.0848 15.2201C28.0708 15.2302 28.0568 15.2408 28.0444 15.2519C27.4058 15.0209 26.755 14.8237 26.0948 14.6612C26.0203 14.643 25.9471 14.6261 25.8738 14.6092C26.0219 14.2711 26.1355 13.9194 26.213 13.5594C26.3661 12.8393 26.3744 12.0968 26.2374 11.3736C27.1186 11.822 27.9684 12.3275 28.7812 12.8865ZM24.961 10.7726C25.1458 11.2757 25.2453 11.8052 25.2556 12.3399C25.2592 12.5812 25.2431 12.8224 25.2076 13.0612C25.1936 13.1537 25.1781 13.247 25.1578 13.3418C25.0795 13.7056 24.956 14.0585 24.7899 14.3927C23.7932 14.2244 22.9665 14.1696 22.3862 14.1578C22.2892 14.1559 22.1875 14.1538 22.0825 14.1523C22.3068 13.4359 22.3992 12.6859 22.3554 11.9377C22.3076 11.1422 22.1048 10.3631 21.758 9.64253C22.9631 9.95632 24.0277 10.362 24.961 10.7726ZM16.4776 9.07289C16.7233 9.06372 16.965 9.05913 17.2028 9.05913C18.2541 9.05842 19.3033 9.14994 20.338 9.33259C20.5118 9.58057 20.6641 9.84243 20.7932 10.1154C21.2849 11.1505 21.4147 12.3159 21.1623 13.4307C21.1051 13.6841 21.0291 13.9331 20.9351 14.1757C20.2203 14.2198 19.5122 14.3379 18.8227 14.5279C18.7311 14.5531 18.6391 14.5798 18.5469 14.6081C18.4952 13.8931 18.3495 13.1877 18.1134 12.5094C17.5906 11.0093 16.7204 9.89782 15.8762 9.10744C16.0762 9.09298 16.2766 9.08074 16.4776 9.07289ZM14.4119 9.27121C14.6835 9.47316 14.9422 9.69125 15.1867 9.92425C15.911 10.6153 16.6479 11.5743 17.0933 12.8517C17.2423 13.2813 17.3499 13.7236 17.4146 14.1729C17.4544 14.4449 17.4788 14.7188 17.4877 14.9934C17.1776 15.1241 16.8705 15.2679 16.5746 15.4245C16.2438 15.5994 15.5767 15.9798 14.8259 16.5643L14.8119 16.5756C14.6892 15.7044 14.4097 14.8872 13.9776 14.1373C12.8071 12.1071 10.8401 11.1827 9.45103 10.7678C10.9628 10.0529 12.6504 9.53903 14.4119 9.27121ZM4.42514 14.7815C5.3123 13.5261 6.55601 12.4234 8.03382 11.5288C8.16805 11.5489 8.3424 11.5792 8.54844 11.6252C9.71571 11.8818 11.8638 12.6195 13.0387 14.6583C13.4304 15.3383 13.6735 16.0866 13.7644 16.8895C13.7855 17.0752 13.7984 17.264 13.8031 17.4557C13.5571 17.6911 13.3005 17.9481 13.0007 18.2487C12.4642 18.7864 12.1107 19.1598 12.096 19.1752C12.0041 19.2725 11.9219 19.3602 11.8456 19.4418C11.6293 19.6729 11.4691 19.8438 11.2653 20.0381C11.1474 19.1429 10.8137 18.0288 9.97267 17.0152C8.68352 15.4601 6.58659 14.6531 4.4055 14.8097L4.42514 14.7815ZM4.89628 19.7476C4.0317 19.227 3.46055 18.8832 3.2308 18.5009C2.91717 17.9793 3.0824 17.0884 3.67964 15.974C3.74818 15.9604 3.81672 15.9478 3.88527 15.9363C5.93016 15.5951 7.95457 16.2569 9.13671 17.6824C10.0124 18.7383 10.2184 19.9395 10.242 20.7367C10.2432 20.778 10.2439 20.8193 10.2442 20.8581C10.0949 20.9542 9.94036 21.0422 9.78135 21.122C8.98817 21.5073 7.33812 20.872 6.63344 20.6005C6.02994 20.3668 5.44873 20.0814 4.89628 19.7476ZM31.9788 23.1883C31.9788 27.4583 28.4383 30.9321 24.0865 30.9321H15.3717C11.0199 30.9321 7.4795 27.4583 7.4795 23.1883V22.0204C8.00787 22.1763 8.5866 22.3002 9.13685 22.3002C9.53688 22.3002 9.92148 22.2351 10.2601 22.0706C10.6586 21.877 11.075 21.5851 11.0925 21.5727C11.2426 21.4671 11.4589 21.3062 11.801 20.9971C12.1431 20.688 12.3518 20.4651 12.6398 20.1576C12.7148 20.0774 12.7956 19.9909 12.8862 19.8953C12.8897 19.8916 13.2454 19.5159 13.771 18.9892C14.4736 18.2849 14.8977 17.8599 15.4962 17.3943C16.182 16.8606 16.7866 16.5155 17.0861 16.3572C17.7372 16.0131 18.4385 15.7332 19.1142 15.5473C20.4572 15.1777 21.5594 15.1999 22.3641 15.217C23.1265 15.2325 24.3475 15.3271 25.8347 15.6897C27.5298 16.1026 29.0957 16.7717 30.5543 17.4934C30.7532 17.7718 30.9332 18.0626 31.0933 18.3641C31.1536 19.0059 31.3722 19.5965 31.6471 20.0503C31.6955 20.1301 31.7465 20.2055 31.7986 20.2789C31.9184 20.8196 31.9787 21.3714 31.9787 21.9247L31.9788 23.1883ZM34.6563 20.4598C34.6053 20.542 34.5335 20.6099 34.4479 20.6568C34.3623 20.7037 34.2658 20.7281 34.1677 20.7277C34.0824 20.7277 33.9981 20.7092 33.9209 20.6737C33.513 20.4863 32.9531 20.1353 32.5743 19.5097C32.2097 18.908 32.0161 18.0577 32.2764 17.2591L34.9292 18.6628C34.9753 18.8262 35.0021 18.9943 35.009 19.1637C35.0306 19.7153 34.8394 20.1616 34.6561 20.4594L34.6563 20.4598ZM36.8023 16.8678C36.5656 17.1749 36.2534 17.4181 35.8948 17.5745C35.7438 17.6399 35.5862 17.6896 35.4246 17.7229L32.8232 16.3466C33.498 15.6353 34.4095 15.5024 34.5414 15.4853C34.664 15.4692 34.7875 15.4611 34.9111 15.4611C35.7044 15.4611 36.3223 15.7966 36.6925 16.0687C36.95 16.2573 36.9956 16.6162 36.8017 16.8667L36.8023 16.8678Z" stroke="#FF8D40" stroke-width="0.5"/>
<path d="M13.2732 22.7681C13.5091 22.9025 13.7758 22.9763 14.0486 22.9828H14.0859C14.3714 22.9827 14.6517 22.9086 14.8987 22.7681C15.0233 22.6967 15.114 22.5798 15.1508 22.4429C15.1877 22.3061 15.1677 22.1604 15.0953 22.038C15.0228 21.9156 14.9039 21.8264 14.7645 21.7899C14.6251 21.7534 14.4766 21.7727 14.3517 21.8435C14.267 21.8905 14.1713 21.9148 14.0741 21.914C13.985 21.9118 13.8978 21.8876 13.8208 21.8435C13.696 21.7749 13.5487 21.7571 13.4107 21.7942C13.2727 21.8312 13.1551 21.92 13.0832 22.0414C13.0114 22.1628 12.9911 22.307 13.0268 22.443C13.0624 22.5789 13.1511 22.6956 13.2738 22.7679L13.2732 22.7681Z" stroke="#FF8D40" stroke-width="0.5"/>
<path d="M23.3683 21.5044C23.8326 21.5044 24.1698 21.2882 24.2994 21.1896C24.3559 21.1466 24.4033 21.0931 24.4387 21.0321C24.4741 20.9711 24.497 20.9039 24.506 20.8342C24.5149 20.7646 24.5098 20.6939 24.4909 20.6262C24.472 20.5584 24.4398 20.495 24.3959 20.4396C24.352 20.3841 24.2975 20.3377 24.2353 20.3029C24.1732 20.2681 24.1047 20.2457 24.0337 20.2369C23.9627 20.2281 23.8906 20.2331 23.8216 20.2516C23.7526 20.2702 23.688 20.3019 23.6315 20.3449C23.6003 20.3687 23.4881 20.4462 23.3392 20.4342C23.2567 20.4272 23.1782 20.3967 23.1132 20.3465C23.0569 20.3032 22.9924 20.2712 22.9235 20.2524C22.8546 20.2335 22.7826 20.2281 22.7116 20.2366C22.6405 20.245 22.5719 20.2671 22.5096 20.3016C22.4473 20.3361 22.3925 20.3823 22.3483 20.4375C22.3042 20.4928 22.2716 20.556 22.2524 20.6236C22.2331 20.6912 22.2277 20.7619 22.2363 20.8316C22.2449 20.9013 22.2674 20.9686 22.3025 21.0298C22.3377 21.0909 22.3847 21.1447 22.4411 21.188C22.6754 21.369 22.9593 21.4777 23.2567 21.5003C23.2947 21.5031 23.3319 21.5044 23.3683 21.5044Z" stroke="#FF8D40" stroke-width="0.5"/>
<path d="M19.3857 24.3612C19.2775 24.4219 19.1549 24.4535 19.0303 24.4529C18.9133 24.4507 18.7989 24.4192 18.6979 24.3612C18.5736 24.295 18.4279 24.2788 18.2916 24.316C18.1553 24.3533 18.0391 24.4411 17.9677 24.5608C17.8962 24.6806 17.875 24.823 17.9086 24.9578C17.9422 25.0927 18.0279 25.2094 18.1476 25.2833C18.4102 25.434 18.7079 25.5159 19.012 25.5212H19.0421C19.3563 25.5209 19.6647 25.4387 19.936 25.2831C20.0557 25.2091 20.1414 25.0924 20.175 24.9576C20.2086 24.8227 20.1874 24.6804 20.1159 24.5606C20.0444 24.4408 19.9283 24.353 19.792 24.3157C19.6557 24.2785 19.51 24.295 19.3857 24.3612Z" stroke="#FF8D40" stroke-width="0.5"/>
<path d="M28.3645 23.3311C28.2671 23.3941 28.1534 23.4285 28.0367 23.4302H28.0309C27.9123 23.4296 27.7964 23.3951 27.6973 23.3311C27.6376 23.2923 27.5708 23.2655 27.5005 23.2521C27.4303 23.2387 27.3581 23.239 27.288 23.253C27.2179 23.2669 27.1512 23.2943 27.0919 23.3336C27.0326 23.3728 26.9817 23.4231 26.9422 23.4817C26.8624 23.5999 26.8338 23.7443 26.8626 23.8833C26.8914 24.0222 26.9752 24.1442 27.0957 24.2225C27.3736 24.4021 27.6988 24.4983 28.0315 24.4993H28.0468C28.3741 24.4962 28.6934 24.4001 28.9661 24.2225C29.0865 24.1442 29.1703 24.0221 29.1991 23.8832C29.2278 23.7442 29.1991 23.5998 29.1193 23.4816C29.0395 23.3634 28.9151 23.2812 28.7735 23.253C28.6319 23.2248 28.4849 23.2528 28.3645 23.3311Z" stroke="#FF8D40" stroke-width="0.5"/>
<path d="M24.5022 27.5348C24.3753 27.6206 24.2241 27.6651 24.0699 27.6621C23.9313 27.6568 23.7972 27.6128 23.6834 27.535C23.6247 27.4946 23.5585 27.4658 23.4886 27.4505C23.4186 27.4352 23.3462 27.4335 23.2756 27.4457C23.205 27.4579 23.1376 27.4836 23.0771 27.5214C23.0166 27.5592 22.9644 27.6083 22.9233 27.666C22.8822 27.7236 22.8532 27.7887 22.8378 27.8574C22.8224 27.9261 22.8209 27.9971 22.8336 28.0663C22.8462 28.1356 22.8726 28.2017 22.9113 28.2609C22.9501 28.3201 23.0003 28.3712 23.0592 28.4113C23.3461 28.6086 23.6853 28.7195 24.0354 28.7306C24.0545 28.7306 24.0734 28.7314 24.0915 28.7314C24.4611 28.7299 24.8214 28.6184 25.125 28.4116C25.1842 28.3717 25.2348 28.3206 25.2739 28.2614C25.3129 28.2022 25.3396 28.136 25.3525 28.0666C25.3653 27.9973 25.3641 27.9261 25.3488 27.8572C25.3335 27.7883 25.3044 27.723 25.2633 27.6652C25.2222 27.6074 25.1698 27.5581 25.1092 27.5202C25.0486 27.4823 24.9809 27.4565 24.9102 27.4444C24.8394 27.4323 24.7668 27.434 24.6967 27.4496C24.6266 27.4651 24.5603 27.494 24.5017 27.5348H24.5022Z" stroke="#FF8D40" stroke-width="0.5"/>
<path d="M14.5385 27.95C14.4141 28.0092 14.2789 28.0433 14.1409 28.0503C13.9655 28.0588 13.7907 28.0242 13.6325 27.9494C13.568 27.9187 13.4978 27.9007 13.4262 27.8967C13.3545 27.8926 13.2827 27.9024 13.2149 27.9257C13.1472 27.9489 13.0847 27.985 13.0312 28.032C12.9778 28.079 12.9343 28.1359 12.9033 28.1994C12.8722 28.263 12.8543 28.3319 12.8506 28.4022C12.8468 28.4726 12.8572 28.5429 12.8813 28.6093C12.9053 28.6757 12.9425 28.7367 12.9907 28.789C13.0388 28.8412 13.097 28.8836 13.162 28.9137C13.451 29.0493 13.7673 29.1198 14.0877 29.1201C14.1243 29.1201 14.1608 29.1193 14.1974 29.1173C14.4798 29.103 14.7564 29.0334 15.0109 28.9125C15.0754 28.8821 15.1331 28.8395 15.1808 28.7871C15.2285 28.7348 15.2652 28.6738 15.2888 28.6075C15.3125 28.5412 15.3226 28.471 15.3186 28.4009C15.3146 28.3308 15.2965 28.2622 15.2655 28.199C15.2344 28.1357 15.191 28.0791 15.1377 28.0323C15.0843 27.9855 15.0221 27.9495 14.9546 27.9263C14.8182 27.8794 14.6684 27.8877 14.5382 27.9492L14.5385 27.95Z" stroke="#FF8D40" stroke-width="0.5"/>
</svg>
