<svg width="40" height="40" viewBox="0 0 40 40" fill="none" xmlns="http://www.w3.org/2000/svg">
<path d="M36.1738 8.96674L23.9053 2.81055C21.7518 1.72999 18.248 1.73015 16.0947 2.81055L14.2721 3.72519C14.1186 3.80513 14.0056 3.937 13.9576 4.09234C13.9096 4.24767 13.9304 4.41401 14.0155 4.55546C14.1007 4.69691 14.2433 4.80212 14.4126 4.84839C14.582 4.89466 14.7644 4.87827 14.9206 4.80277L16.7433 3.88813C18.5087 3.00226 21.4915 3.00226 23.2567 3.88813L35.5253 10.0443C36.2423 10.404 36.6535 10.8626 36.6535 11.3025C36.6535 11.7424 36.2425 12.2009 35.5253 12.5606L23.2567 18.7168C21.4915 19.6026 18.5087 19.6026 16.7433 18.7168L4.47473 12.5606C3.75788 12.2009 3.34654 11.7422 3.34654 11.3025C3.34654 10.8628 3.75754 10.4041 4.47473 10.0443L11.3944 6.57279C11.4734 6.53463 11.5432 6.48252 11.5999 6.41948C11.6566 6.35645 11.6989 6.28374 11.7245 6.20561C11.7501 6.12747 11.7585 6.04547 11.749 5.96436C11.7396 5.88326 11.7126 5.80469 11.6695 5.73321C11.6265 5.66174 11.5684 5.59879 11.4985 5.54803C11.4285 5.49728 11.3483 5.45974 11.2623 5.43759C11.1764 5.41544 11.0864 5.40912 10.9978 5.41901C10.9091 5.42891 10.8235 5.4548 10.7459 5.4952L3.82621 8.96674C2.65195 9.55596 2.00411 10.3819 2 11.2947C2 11.2974 2 11.2999 2 11.3025L2.00103 28.6319C1.97397 29.4898 2.56701 30.395 3.44723 30.8368L15.7158 36.993C16.9381 37.6063 18.3934 37.9367 19.8258 37.9789C19.9326 38.0058 20.0451 38.0074 20.1528 37.9838C21.516 37.9819 22.8415 37.717 23.9048 37.1831L36.1733 31.027C37.3778 30.4226 38.0416 29.5403 37.9974 28.6031L37.9995 11.6298C37.9994 11.59 37.9951 11.5503 37.9866 11.5113C37.9948 11.4417 37.9991 11.3718 37.9995 11.3019C38 10.3873 37.3515 9.55768 36.1738 8.96674ZM36.6523 28.6497C36.6778 29.1032 36.2671 29.577 35.5253 29.9492L23.2567 36.1057C22.5264 36.4723 21.6246 36.6812 20.6733 36.7375V28.9467C20.6705 28.7853 20.5983 28.6315 20.4723 28.5183C20.3464 28.4051 20.1767 28.3416 20 28.3416C19.8233 28.3416 19.6536 28.4051 19.5277 28.5183C19.4017 28.6315 19.3295 28.7853 19.3267 28.9467V36.7164C18.2807 36.6239 17.2424 36.3559 16.3641 35.9153L4.09576 29.7591C3.65359 29.5372 3.33181 29.066 3.34705 28.6632V13.3643C3.50117 13.4637 3.66125 13.5551 3.82655 13.6381L16.0951 19.7943C17.0005 20.2488 18.1449 20.5112 19.3271 20.5834V26.0085C19.3299 26.1699 19.4021 26.3238 19.528 26.437C19.654 26.5502 19.8236 26.6136 20.0003 26.6136C20.1771 26.6136 20.3467 26.5502 20.4727 26.437C20.5986 26.3238 20.6708 26.1699 20.6736 26.0085V20.5834C21.8552 20.5112 23.0002 20.2488 23.9056 19.7943L36.1741 13.6381C36.3394 13.5552 36.4995 13.4638 36.6536 13.3645L36.6517 28.618L36.6523 28.6497Z" fill="#FF8D40"/>
<path d="M9.20962 11.3026C9.20962 11.9254 9.65128 12.5043 10.4212 12.8907L17.5846 16.4856C18.2619 16.8254 19.1308 16.9954 19.9992 16.9953C20.8676 16.9951 21.7374 16.8254 22.4139 16.4856L29.5781 12.8907C30.3487 12.5043 30.7897 11.9254 30.7897 11.3026C30.7897 10.6797 30.348 10.1008 29.5781 9.71442L25.1026 7.46793C25.0175 7.39312 24.9121 7.34024 24.7973 7.31468L22.4154 6.1195C21.061 5.43989 18.939 5.43989 17.5846 6.1195L10.4204 9.71442C9.65042 10.1005 9.20962 10.6791 9.20962 11.3026ZM21.7677 15.4081C20.8259 15.8803 19.1753 15.8803 18.234 15.4081L15.6139 14.0928L19.9859 11.4547L24.7882 13.892L21.7677 15.4081ZM29.4455 11.3026C29.4455 11.4589 29.2488 11.6541 28.9318 11.813L26.1827 13.1925L21.2507 10.6905L24.6463 8.642L28.9313 10.7922C29.2479 10.9509 29.4447 11.1467 29.4447 11.3026H29.4455ZM18.2331 7.19709C18.7037 6.96096 19.3517 6.8429 20.0001 6.8429C20.6484 6.8429 21.2964 6.96096 21.7669 7.19709L23.3126 7.97271L19.9237 10.0175L16.2879 8.17318L18.2331 7.19709ZM11.0689 10.792L14.8941 8.87249L18.6571 10.7817L14.2786 13.4236L11.0689 11.813C10.7521 11.6541 10.5551 11.4585 10.5551 11.3026C10.5551 11.1467 10.7521 10.9509 11.0689 10.792Z" fill="#FF8D40"/>
<path d="M36.1738 8.96674L23.9053 2.81055C21.7518 1.72999 18.248 1.73015 16.0947 2.81055L14.2721 3.72519C14.1186 3.80513 14.0056 3.937 13.9576 4.09234C13.9096 4.24767 13.9304 4.41401 14.0155 4.55546C14.1007 4.69691 14.2433 4.80212 14.4126 4.84839C14.582 4.89466 14.7644 4.87827 14.9206 4.80277L16.7433 3.88813C18.5087 3.00226 21.4915 3.00226 23.2567 3.88813L35.5253 10.0443C36.2423 10.404 36.6535 10.8626 36.6535 11.3025C36.6535 11.7424 36.2425 12.2009 35.5253 12.5606L23.2567 18.7168C21.4915 19.6026 18.5087 19.6026 16.7433 18.7168L4.47473 12.5606C3.75788 12.2009 3.34654 11.7422 3.34654 11.3025C3.34654 10.8628 3.75754 10.4041 4.47473 10.0443L11.3944 6.57279C11.4734 6.53463 11.5432 6.48252 11.5999 6.41948C11.6566 6.35645 11.6989 6.28374 11.7245 6.20561C11.7501 6.12747 11.7585 6.04547 11.749 5.96436C11.7396 5.88326 11.7126 5.80469 11.6695 5.73321C11.6265 5.66174 11.5684 5.59879 11.4985 5.54803C11.4285 5.49728 11.3483 5.45974 11.2623 5.43759C11.1764 5.41544 11.0864 5.40912 10.9978 5.41901C10.9091 5.42891 10.8235 5.4548 10.7459 5.4952L3.82621 8.96674C2.65195 9.55596 2.00411 10.3819 2 11.2947C2 11.2974 2 11.2999 2 11.3025L2.00103 28.6319C1.97397 29.4898 2.56701 30.395 3.44723 30.8368L15.7158 36.993C16.9381 37.6063 18.3934 37.9367 19.8258 37.9789C19.9326 38.0058 20.0451 38.0074 20.1528 37.9838C21.516 37.9819 22.8415 37.717 23.9048 37.1831L36.1733 31.027C37.3778 30.4226 38.0416 29.5403 37.9974 28.6031L37.9995 11.6298C37.9994 11.59 37.9951 11.5503 37.9866 11.5113C37.9948 11.4417 37.9991 11.3718 37.9995 11.3019C38 10.3873 37.3515 9.55768 36.1738 8.96674ZM36.6523 28.6497C36.6778 29.1032 36.2671 29.577 35.5253 29.9492L23.2567 36.1057C22.5264 36.4723 21.6246 36.6812 20.6733 36.7375V28.9467C20.6705 28.7853 20.5983 28.6315 20.4723 28.5183C20.3464 28.4051 20.1767 28.3416 20 28.3416C19.8233 28.3416 19.6536 28.4051 19.5277 28.5183C19.4017 28.6315 19.3295 28.7853 19.3267 28.9467V36.7164C18.2807 36.6239 17.2424 36.3559 16.3641 35.9153L4.09576 29.7591C3.65359 29.5372 3.33181 29.066 3.34705 28.6632V13.3643C3.50117 13.4637 3.66125 13.5551 3.82655 13.6381L16.0951 19.7943C17.0005 20.2488 18.1449 20.5112 19.3271 20.5834V26.0085C19.3299 26.1699 19.4021 26.3238 19.528 26.437C19.654 26.5502 19.8236 26.6136 20.0003 26.6136C20.1771 26.6136 20.3467 26.5502 20.4727 26.437C20.5986 26.3238 20.6708 26.1699 20.6736 26.0085V20.5834C21.8552 20.5112 23.0002 20.2488 23.9056 19.7943L36.1741 13.6381C36.3394 13.5552 36.4995 13.4638 36.6536 13.3645L36.6517 28.618L36.6523 28.6497Z" stroke="#FF8D40" stroke-width="0.5"/>
<path d="M9.20962 11.3026C9.20962 11.9254 9.65128 12.5043 10.4212 12.8907L17.5846 16.4856C18.2619 16.8254 19.1308 16.9954 19.9992 16.9953C20.8676 16.9951 21.7374 16.8254 22.4139 16.4856L29.5781 12.8907C30.3487 12.5043 30.7897 11.9254 30.7897 11.3026C30.7897 10.6797 30.348 10.1008 29.5781 9.71442L25.1026 7.46793C25.0175 7.39312 24.9121 7.34024 24.7973 7.31468L22.4154 6.1195C21.061 5.43989 18.939 5.43989 17.5846 6.1195L10.4204 9.71442C9.65042 10.1005 9.20962 10.6791 9.20962 11.3026ZM21.7677 15.4081C20.8259 15.8803 19.1753 15.8803 18.234 15.4081L15.6139 14.0928L19.9859 11.4547L24.7882 13.892L21.7677 15.4081ZM29.4455 11.3026C29.4455 11.4589 29.2488 11.6541 28.9318 11.813L26.1827 13.1925L21.2507 10.6905L24.6463 8.642L28.9313 10.7922C29.2479 10.9509 29.4447 11.1467 29.4447 11.3026H29.4455ZM18.2331 7.19709C18.7037 6.96096 19.3517 6.8429 20.0001 6.8429C20.6484 6.8429 21.2964 6.96096 21.7669 7.19709L23.3126 7.97271L19.9237 10.0175L16.2879 8.17318L18.2331 7.19709ZM11.0689 10.792L14.8941 8.87249L18.6571 10.7817L14.2786 13.4236L11.0689 11.813C10.7521 11.6541 10.5551 11.4585 10.5551 11.3026C10.5551 11.1467 10.7521 10.9509 11.0689 10.792Z" stroke="#FF8D40" stroke-width="0.5"/>
</svg>
