<svg width="20" height="21" viewBox="0 0 20 21" fill="none" xmlns="http://www.w3.org/2000/svg">
<g clip-path="url(#clip0_639_53612)">
<path fill-rule="evenodd" clip-rule="evenodd" d="M2.35684 1.58962C2.57556 1.37123 2.83819 1.20181 3.12733 1.0926C3.41648 0.983394 3.72553 0.936881 4.03401 0.956146C4.34249 0.975411 4.64336 1.06002 4.91667 1.20435C5.18998 1.34869 5.42949 1.54946 5.61934 1.79337L7.86309 4.67587C8.27434 5.20462 8.41934 5.89337 8.25684 6.54337L7.57309 9.28087C7.53774 9.42265 7.53965 9.57117 7.57863 9.712C7.61762 9.85284 7.69236 9.98119 7.79559 10.0846L10.8668 13.1559C10.9704 13.2593 11.099 13.3342 11.24 13.3732C11.3811 13.4122 11.5299 13.4139 11.6718 13.3784L14.4081 12.6946C14.7289 12.6144 15.0637 12.6082 15.3872 12.6764C15.7107 12.7446 16.0145 12.8855 16.2756 13.0884L19.1581 15.3309C20.1943 16.1371 20.2893 17.6684 19.3618 18.5946L18.0693 19.8871C17.1443 20.8121 15.7618 21.2184 14.4731 20.7646C11.1746 19.604 8.17968 17.7157 5.71059 15.2396C3.2347 12.7709 1.34635 9.77644 0.185589 6.47837C-0.266911 5.19087 0.139339 3.80712 1.06434 2.88212L2.35684 1.58962Z" fill="#7ABB66"/>
</g>
<defs>
<clipPath id="clip0_639_53612">
<rect width="20" height="20" fill="white" transform="translate(0 0.951172)"/>
</clipPath>
</defs>
</svg>
